# xmcd
#
# Track frame offsets: 
#        150
#        25942
#        53437
#        88215
#        119976
#        159432
#        193954
#        227172
#        258932
#        296640
#
# Disc length: 4620 seconds
#
# Revision: 0
# Processed by: cddbd v1.5.2PL0 Copyright (c) Steve Scherf et al.
# Submitted via: ExactAudioCopy v1.0b3
#
DISCID=8f120a0a
DTITLE=Aes Dana - Pollen
DYEAR=2012
DGENRE=Electronic
TTITLE0=Jetlag Corporation
TTITLE1=Borderline
TTITLE2=Conditioned (album edit)
TTITLE3=Tree.Some
TTITLE4=A Carmine Day
TTITLE5=101 Clouds
TTITLE6=Riven
TTITLE7=The Meeting Point
TTITLE8=Horizontal Rain
TTITLE9=Low Tide Explorations
EXTD=
EXTT0=
EXTT1=
EXTT2=
EXTT3=
EXTT4=
EXTT5=
EXTT6=
EXTT7=
EXTT8=
EXTT9=
PLAYORDER=
